REM MD5 840ca284599c28bdac62cc097dbd6b20
FILE "SuperLite 3in1 Series - Board Game-shuu (Japan).bin" BINARY
  TRACK 01 MODE2/2352
    INDEX 01 00:00:00
  TRACK 02 AUDIO
    INDEX 00 10:57:51
    INDEX 01 10:59:51
  TRACK 03 AUDIO
    INDEX 00 12:26:60
    INDEX 01 12:28:60
  TRACK 04 AUDIO
    INDEX 00 13:56:38
    INDEX 01 13:58:38
  TRACK 05 AUDIO
    INDEX 00 15:26:16
    INDEX 01 15:28:16
REM LEADOUT 18:57:15
